<?xml version="1.0" encoding="UTF-8"?>
<svg xmlns="http://www.w3.org/2000/svg" xmlns:xlink="http://www.w3.org/1999/xlink" width="0" height="0">
<symbol id="arrow-left-on-rectangle" width="20" height="20" viewBox="0 0 20 20" fill="none">
<path fill-rule="evenodd" clip-rule="evenodd" d="M3 4.25C3 3.00736 4.00736 2 5.25 2H10.75C11.9926 2 13 3.00736 13 4.25V6.25C13 6.66421 12.6642 7 12.25 7C11.8358 7 11.5 6.66421 11.5 6.25V4.25C11.5 3.83579 11.1642 3.5 10.75 3.5H5.25C4.83579 3.5 4.5 3.83579 4.5 4.25V15.75C4.5 16.1642 4.83579 16.5 5.25 16.5H10.75C11.1642 16.5 11.5 16.1642 11.5 15.75V13.75C11.5 13.3358 11.8358 13 12.25 13C12.6642 13 13 13.3358 13 13.75V15.75C13 16.9926 11.9926 18 10.75 18H5.25C4.00736 18 3 16.9926 3 15.75V4.25Z" fill="currentColor"/>
<path fill-rule="evenodd" clip-rule="evenodd" d="M19 10C19 9.58579 18.6642 9.25 18.25 9.25H8.70447L9.75172 8.30747C10.0596 8.03038 10.0846 7.55616 9.80747 7.24828C9.53038 6.94039 9.05616 6.91543 8.74828 7.19253L6.24828 9.44253C6.09024 9.58476 6 9.78738 6 10C6 10.2126 6.09024 10.4152 6.24828 10.5575L8.74828 12.8075C9.05616 13.0846 9.53038 13.0596 9.80747 12.7517C10.0846 12.4438 10.0596 11.9696 9.75172 11.6925L8.70447 10.75H18.25C18.6642 10.75 19 10.4142 19 10Z" fill="currentColor"/>
</symbol>

<symbol id="pencil-square" width="20" height="20" viewBox="0 0 20 20" fill="none">
<path d="M5.43306 13.9168L6.69485 10.7623C6.89603 10.2593 7.19728 9.80249 7.58033 9.41945L14.4995 2.50071C15.3279 1.67229 16.6711 1.67229 17.4995 2.50072C18.3279 3.32914 18.3279 4.67229 17.4995 5.50072L10.5803 12.4194C10.1973 12.8025 9.74042 13.1037 9.23746 13.3049L6.08299 14.5667C5.67484 14.73 5.2698 14.3249 5.43306 13.9168Z" fill="currentColor"/>
<path d="M3.5 5.75C3.5 5.05964 4.05964 4.5 4.75 4.5H10C10.4142 4.5 10.75 4.16421 10.75 3.75C10.75 3.33579 10.4142 3 10 3H4.75C3.23122 3 2 4.23122 2 5.75V15.25C2 16.7688 3.23122 18 4.75 18H14.25C15.7688 18 17 16.7688 17 15.25V10C17 9.58579 16.6642 9.25 16.25 9.25C15.8358 9.25 15.5 9.58579 15.5 10V15.25C15.5 15.9404 14.9404 16.5 14.25 16.5H4.75C4.05964 16.5 3.5 15.9404 3.5 15.25V5.75Z" fill="currentColor"/>
</symbol>

<symbol id="user" width="20" height="20" viewBox="0 0 20 20" fill="none">
<path d="M10 8C11.6569 8 13 6.65685 13 5C13 3.34315 11.6569 2 10 2C8.34315 2 7 3.34315 7 5C7 6.65685 8.34315 8 10 8Z" fill="currentColor"/>
<path d="M3.46517 14.4935C3.27029 15.0016 3.44435 15.571 3.8742 15.9046C5.56656 17.218 7.69202 18 10.0001 18C12.3106 18 14.438 17.2164 16.1312 15.9006C16.5608 15.5667 16.7345 14.9971 16.5393 14.4892C15.5301 11.8635 12.9842 10 10.0031 10C7.02032 10 4.47329 11.8656 3.46517 14.4935Z" fill="currentColor"/>
</symbol>

</svg>
