<?xml version="1.0" encoding="UTF-8"?>
<svg xmlns="http://www.w3.org/2000/svg" xmlns:xlink="http://www.w3.org/1999/xlink" width="0" height="0">
<symbol id="chevron-down" width="20" height="20" viewBox="0 0 20 20" fill="none">
<path fill-rule="evenodd" clip-rule="evenodd" d="M5.23017 7.20938C5.52875 6.92228 6.00353 6.93159 6.29063 7.23017L10 11.1679L13.7094 7.23017C13.9965 6.93159 14.4713 6.92228 14.7698 7.20938C15.0684 7.49647 15.0777 7.97125 14.7906 8.26983L10.5406 12.7698C10.3992 12.9169 10.204 13 10 13C9.79599 13 9.60078 12.9169 9.45938 12.7698L5.20938 8.26983C4.92228 7.97125 4.93159 7.49647 5.23017 7.20938Z" fill="currentColor"/>
</symbol>

<symbol id="magnifying-glass" width="20" height="20" viewBox="0 0 20 20" fill="none">
<path fill-rule="evenodd" clip-rule="evenodd" d="M9 3.5C5.96243 3.5 3.5 5.96243 3.5 9C3.5 12.0376 5.96243 14.5 9 14.5C10.519 14.5 11.893 13.8852 12.8891 12.8891C13.8852 11.893 14.5 10.519 14.5 9C14.5 5.96243 12.0376 3.5 9 3.5ZM2 9C2 5.13401 5.13401 2 9 2C12.866 2 16 5.13401 16 9C16 10.6625 15.4197 12.1906 14.4517 13.3911L17.7803 16.7197C18.0732 17.0126 18.0732 17.4874 17.7803 17.7803C17.4874 18.0732 17.0126 18.0732 16.7197 17.7803L13.3911 14.4517C12.1906 15.4197 10.6625 16 9 16C5.13401 16 2 12.866 2 9Z" fill="currentColor"/>
</symbol>

</svg>
