<?xml version="1.0" encoding="UTF-8"?>
<svg xmlns="http://www.w3.org/2000/svg" xmlns:xlink="http://www.w3.org/1999/xlink" width="0" height="0">
<symbol id="computer-desktop" width="24" height="24" viewBox="0 0 24 24" fill="none">
<path d="M9 17.25V18.2574C9 19.053 8.68393 19.8161 8.12132 20.3787L7.5 21H16.5L15.8787 20.3787C15.3161 19.8161 15 19.053 15 18.2574V17.25M21 5.25V15C21 16.2426 19.9926 17.25 18.75 17.25H5.25C4.00736 17.25 3 16.2426 3 15V5.25M21 5.25C21 4.00736 19.9926 3 18.75 3H5.25C4.00736 3 3 4.00736 3 5.25M21 5.25V12C21 13.2426 19.9926 14.25 18.75 14.25H5.25C4.00736 14.25 3 13.2426 3 12V5.25" stroke="currentColor" stroke-width="1.5" stroke-linecap="round" stroke-linejoin="round"/>
</symbol>

<symbol id="moon" width="24" height="24" viewBox="0 0 24 24" fill="none">
<path d="M21.7519 15.0019C20.597 15.4839 19.3296 15.75 18 15.75C12.6152 15.75 8.25 11.3848 8.25 5.99999C8.25 4.67039 8.51614 3.40296 8.99806 2.24805C5.47566 3.71785 3 7.19481 3 11.25C3 16.6348 7.36522 21 12.75 21C16.8052 21 20.2821 18.5243 21.7519 15.0019Z" stroke="currentColor" stroke-width="1.5" stroke-linecap="round" stroke-linejoin="round"/>
</symbol>

<symbol id="sun" width="24" height="24" viewBox="0 0 24 24" fill="none">
<path d="M12 3V5.25M18.364 5.63604L16.773 7.22703M21 12H18.75M18.364 18.364L16.773 16.773M12 18.75V21M7.22703 16.773L5.63604 18.364M5.25 12H3M7.22703 7.22703L5.63604 5.63604M15.75 12C15.75 14.0711 14.0711 15.75 12 15.75C9.92893 15.75 8.25 14.0711 8.25 12C8.25 9.92893 9.92893 8.25 12 8.25C14.0711 8.25 15.75 9.92893 15.75 12Z" stroke="currentColor" stroke-width="1.5" stroke-linecap="round" stroke-linejoin="round"/>
</symbol>

</svg>
