<?xml version="1.0" encoding="UTF-8"?>
<svg xmlns="http://www.w3.org/2000/svg" xmlns:xlink="http://www.w3.org/1999/xlink" width="0" height="0">
<symbol id="bars-3" width="24" height="24" viewBox="0 0 24 24" fill="none">
<path d="M3.75 6.75H20.25M3.75 12H20.25M3.75 17.25H20.25" stroke="currentColor" stroke-width="1.5" stroke-linecap="round" stroke-linejoin="round"/>
</symbol>

<symbol id="bell" width="24" height="24" viewBox="0 0 24 24" fill="none">
<path d="M14.8569 17.0817C16.7514 16.857 18.5783 16.4116 20.3111 15.7719C18.8743 14.177 17.9998 12.0656 17.9998 9.75V9.04919C17.9999 9.03281 18 9.01641 18 9C18 5.68629 15.3137 3 12 3C8.68629 3 6 5.68629 6 9L5.9998 9.75C5.9998 12.0656 5.12527 14.177 3.68848 15.7719C5.4214 16.4116 7.24843 16.857 9.14314 17.0818M14.8569 17.0817C13.92 17.1928 12.9666 17.25 11.9998 17.25C11.0332 17.25 10.0799 17.1929 9.14314 17.0818M14.8569 17.0817C14.9498 17.3711 15 17.6797 15 18C15 19.6569 13.6569 21 12 21C10.3431 21 9 19.6569 9 18C9 17.6797 9.05019 17.3712 9.14314 17.0818" stroke="currentColor" stroke-width="1.5" stroke-linecap="round" stroke-linejoin="round"/>
</symbol>

<symbol id="calendar" width="24" height="24" viewBox="0 0 24 24" fill="none">
<path d="M6.75 3V5.25M17.25 3V5.25M3 18.75V7.5C3 6.25736 4.00736 5.25 5.25 5.25H18.75C19.9926 5.25 21 6.25736 21 7.5V18.75M3 18.75C3 19.9926 4.00736 21 5.25 21H18.75C19.9926 21 21 19.9926 21 18.75M3 18.75V11.25C3 10.0074 4.00736 9 5.25 9H18.75C19.9926 9 21 10.0074 21 11.25V18.75" stroke="currentColor" stroke-width="1.5" stroke-linecap="round" stroke-linejoin="round"/>
</symbol>

<symbol id="chart-pie" width="24" height="24" viewBox="0 0 24 24" fill="none">
<path d="M10.5 6C6.35786 6 3 9.35786 3 13.5C3 17.6421 6.35786 21 10.5 21C14.6421 21 18 17.6421 18 13.5H10.5V6Z" stroke="currentColor" stroke-width="1.5" stroke-linecap="round" stroke-linejoin="round"/>
<path d="M13.5 10.5H21C21 6.35786 17.6421 3 13.5 3V10.5Z" stroke="currentColor" stroke-width="1.5" stroke-linecap="round" stroke-linejoin="round"/>
</symbol>

<symbol id="cog-6-tooth" width="24" height="24" viewBox="0 0 24 24" fill="none">
<path d="M9.59353 3.94005C9.68394 3.39759 10.1533 3 10.7032 3H13.2972C13.8471 3 14.3165 3.39759 14.4069 3.94005L14.6204 5.2211C14.6827 5.59514 14.9327 5.90671 15.2645 6.09036C15.3386 6.13142 15.412 6.17383 15.4844 6.21757C15.8094 6.41384 16.2048 6.47486 16.5603 6.34166L17.7772 5.88578C18.2922 5.69284 18.8712 5.90051 19.1461 6.37677L20.4431 8.62321C20.7181 9.09948 20.6084 9.70473 20.1839 10.0543L19.1795 10.8811C18.887 11.1219 18.742 11.4937 18.749 11.8725C18.7498 11.9149 18.7502 11.9574 18.7502 12C18.7502 12.0426 18.7498 12.0851 18.749 12.1275C18.742 12.5063 18.887 12.8781 19.1795 13.1189L20.1839 13.9457C20.6084 14.2953 20.7181 14.9005 20.4431 15.3768L19.1461 17.6232C18.8712 18.0995 18.2922 18.3071 17.7772 18.1142L16.5603 17.6583C16.2048 17.5251 15.8094 17.5862 15.4844 17.7824C15.412 17.8262 15.3386 17.8686 15.2645 17.9096C14.9327 18.0933 14.6827 18.4049 14.6204 18.7789L14.4069 20.0599C14.3165 20.6024 13.8471 21 13.2972 21H10.7032C10.1533 21 9.68394 20.6024 9.59353 20.0599L9.38002 18.7789C9.31768 18.4049 9.06771 18.0933 8.73594 17.9096C8.66176 17.8686 8.58844 17.8262 8.51601 17.7824C8.19098 17.5862 7.79565 17.5251 7.44008 17.6583L6.22322 18.1142C5.70822 18.3072 5.12923 18.0995 4.85426 17.6232L3.55728 15.3768C3.28231 14.9005 3.39196 14.2953 3.81654 13.9457L4.82089 13.1189C5.1134 12.8781 5.2584 12.5063 5.25138 12.1275C5.2506 12.0851 5.2502 12.0426 5.2502 12C5.2502 11.9574 5.2506 11.9149 5.25138 11.8725C5.2584 11.4937 5.1134 11.1219 4.82089 10.8811L3.81654 10.0543C3.39196 9.70475 3.28231 9.09949 3.55728 8.62323L4.85426 6.37679C5.12923 5.90052 5.70822 5.69286 6.22321 5.88579L7.44007 6.34167C7.79563 6.47487 8.19096 6.41385 8.516 6.21758C8.58843 6.17384 8.66176 6.13142 8.73594 6.09036C9.06771 5.90671 9.31768 5.59514 9.38002 5.2211L9.59353 3.94005Z" stroke="currentColor" stroke-width="1.5" stroke-linecap="round" stroke-linejoin="round"/>
<path d="M15 11.9999C15 13.6568 13.6568 14.9999 12 14.9999C10.3431 14.9999 8.99997 13.6568 8.99997 11.9999C8.99997 10.3431 10.3431 8.99992 12 8.99992C13.6568 8.99992 15 10.3431 15 11.9999Z" stroke="currentColor" stroke-width="1.5" stroke-linecap="round" stroke-linejoin="round"/>
</symbol>

<symbol id="document-duplicate" width="24" height="24" viewBox="0 0 24 24" fill="none">
<path d="M15.75 17.25V20.625C15.75 21.2463 15.2463 21.75 14.625 21.75H4.875C4.25368 21.75 3.75 21.2463 3.75 20.625V7.875C3.75 7.25368 4.25368 6.75 4.875 6.75H6.75C7.26107 6.75 7.76219 6.7926 8.25 6.87444M15.75 17.25H19.125C19.7463 17.25 20.25 16.7463 20.25 16.125V11.25C20.25 6.79051 17.0066 3.08855 12.75 2.37444C12.2622 2.2926 11.7611 2.25 11.25 2.25H9.375C8.75368 2.25 8.25 2.75368 8.25 3.375V6.87444M15.75 17.25H9.375C8.75368 17.25 8.25 16.7463 8.25 16.125V6.87444M20.25 13.5V11.625C20.25 9.76104 18.739 8.25 16.875 8.25H15.375C14.7537 8.25 14.25 7.74632 14.25 7.125V5.625C14.25 3.76104 12.739 2.25 10.875 2.25H9.75" stroke="currentColor" stroke-width="1.5" stroke-linecap="round" stroke-linejoin="round"/>
</symbol>

<symbol id="folder" width="24" height="24" viewBox="0 0 24 24" fill="none">
<path d="M2.25 12.75V12C2.25 10.7574 3.25736 9.75 4.5 9.75H19.5C20.7426 9.75 21.75 10.7574 21.75 12V12.75M13.0607 6.31066L10.9393 4.18934C10.658 3.90804 10.2765 3.75 9.87868 3.75H4.5C3.25736 3.75 2.25 4.75736 2.25 6V18C2.25 19.2426 3.25736 20.25 4.5 20.25H19.5C20.7426 20.25 21.75 19.2426 21.75 18V9C21.75 7.75736 20.7426 6.75 19.5 6.75H14.1213C13.7235 6.75 13.342 6.59197 13.0607 6.31066Z" stroke="currentColor" stroke-width="1.5" stroke-linecap="round" stroke-linejoin="round"/>
</symbol>

<symbol id="home" width="24" height="24" viewBox="0 0 24 24" fill="none">
<path d="M2.25 11.9998L11.2045 3.04533C11.6438 2.60599 12.3562 2.60599 12.7955 3.04532L21.75 11.9998M4.5 9.74983V19.8748C4.5 20.4961 5.00368 20.9998 5.625 20.9998H9.75V16.1248C9.75 15.5035 10.2537 14.9998 10.875 14.9998H13.125C13.7463 14.9998 14.25 15.5035 14.25 16.1248V20.9998H18.375C18.9963 20.9998 19.5 20.4962 19.5 19.8748V9.74983M8.25 20.9998H16.5" stroke="currentColor" stroke-width="1.5" stroke-linecap="round" stroke-linejoin="round"/>
</symbol>

<symbol id="users" width="24" height="24" viewBox="0 0 24 24" fill="none">
<path d="M15 19.1276C15.8329 19.37 16.7138 19.5 17.625 19.5C19.1037 19.5 20.5025 19.1576 21.7464 18.5478C21.7488 18.4905 21.75 18.4329 21.75 18.375C21.75 16.0968 19.9031 14.25 17.625 14.25C16.2069 14.25 14.956 14.9655 14.2136 16.0552M15 19.1276V19.125C15 18.0121 14.7148 16.9658 14.2136 16.0552M15 19.1276C15 19.1632 14.9997 19.1988 14.9991 19.2343C13.1374 20.3552 10.9565 21 8.625 21C6.29353 21 4.11264 20.3552 2.25092 19.2343C2.25031 19.198 2.25 19.1615 2.25 19.125C2.25 15.6042 5.10418 12.75 8.625 12.75C11.0329 12.75 13.129 14.085 14.2136 16.0552M12 6.375C12 8.23896 10.489 9.75 8.625 9.75C6.76104 9.75 5.25 8.23896 5.25 6.375C5.25 4.51104 6.76104 3 8.625 3C10.489 3 12 4.51104 12 6.375ZM20.25 8.625C20.25 10.0747 19.0747 11.25 17.625 11.25C16.1753 11.25 15 10.0747 15 8.625C15 7.17525 16.1753 6 17.625 6C19.0747 6 20.25 7.17525 20.25 8.625Z" stroke="currentColor" stroke-width="1.5" stroke-linecap="round" stroke-linejoin="round"/>
</symbol>

<symbol id="x-mark" width="24" height="24" viewBox="0 0 24 24" fill="none">
<path d="M6 18L18 6M6 6L18 18" stroke="currentColor" stroke-width="1.5" stroke-linecap="round" stroke-linejoin="round"/>
</symbol>

</svg>
